<?xml version="1.0" encoding="UTF-8"?>
<!DOCTYPE svg PUBLIC "-//W3C//DTD SVG 1.1//EN" "http://www.w3.org/Graphics/SVG/1.1/DTD/svg11.dtd">
<svg xmlns="http://www.w3.org/2000/svg" version="1.1" width="100px" height="60px" style="shape-rendering:geometricPrecision; text-rendering:geometricPrecision; image-rendering:optimizeQuality; fill-rule:evenodd; clip-rule:evenodd" xmlns:xlink="http://www.w3.org/1999/xlink">
<g><path style="opacity:0.008" fill="#fefffe" d="M 3.5,1.5 C 4.83333,2.16667 4.83333,2.16667 3.5,1.5 Z"/></g>
<g><path style="opacity:0.008" fill="#fefffe" d="M 6.5,1.5 C 7.83333,2.16667 7.83333,2.16667 6.5,1.5 Z"/></g>
<g><path style="opacity:0.004" fill="#fdfefd" d="M 8.5,1.5 C 9.83333,2.16667 9.83333,2.16667 8.5,1.5 Z"/></g>
<g><path style="opacity:0.008" fill="#fefffe" d="M 17.5,1.5 C 18.8333,2.16667 18.8333,2.16667 17.5,1.5 Z"/></g>
<g><path style="opacity:0.789" fill="#d4d4d2" d="M 6.5,2.5 C 7.65177,4.68846 9.15177,4.68846 11,2.5C 12.6667,3.83333 14.3333,3.83333 16,2.5C 17.1127,3.30501 18.2794,3.97168 19.5,4.5C 19.5,4.83333 19.5,5.16667 19.5,5.5C 18.7658,6.92929 17.5991,7.92929 16,8.5C 12.5147,8.39872 9.01475,8.39872 5.5,8.5C 4.26133,8.05758 3.26133,7.39092 2.5,6.5C 2.89395,4.29014 4.22729,2.95681 6.5,2.5 Z"/></g>
<g><path style="opacity:0.008" fill="#ffce4f" d="M 19.5,4.5 C 20.2506,3.42654 21.2506,3.25988 22.5,4C 21.552,4.48278 20.552,4.64945 19.5,4.5 Z"/></g>
<g><path style="opacity:0.016" fill="#e2b34a" d="M -0.5,6.5 C 0.338246,6.84171 0.67158,7.50838 0.5,8.5C 0.166667,8.5 -0.166667,8.5 -0.5,8.5C -0.5,7.83333 -0.5,7.16667 -0.5,6.5 Z"/></g>
<g><path style="opacity:0.896" fill="#fbc53c" d="M 19.5,5.5 C 20.8221,5.33003 21.9887,5.66337 23,6.5C 23.7033,8.92915 23.5366,11.2625 22.5,13.5C 22.1667,13.5 21.8333,13.5 21.5,13.5C 18.6122,12.9898 16.2789,13.6565 14.5,15.5C 16.9686,16.3171 19.6353,16.8171 22.5,17C 23.8333,19 23.8333,21 22.5,23C 19.854,23.4974 17.1873,23.6641 14.5,23.5C 14.5,24.5 14.5,25.5 14.5,26.5C 17.1873,26.3359 19.854,26.5026 22.5,27C 23.0989,28.6225 23.7656,30.1225 24.5,31.5C 24.1667,32.1667 23.8333,32.8333 23.5,33.5C 22.7109,33.7828 22.0442,34.2828 21.5,35C 15.5,35.6667 9.5,35.6667 3.5,35C 2.94404,34.6174 2.61071,34.1174 2.5,33.5C 1.62868,25.2004 1.29535,16.8671 1.5,8.5C 1.32842,7.50838 1.66175,6.84171 2.5,6.5C 3.26133,7.39092 4.26133,8.05758 5.5,8.5C 9.01475,8.39872 12.5147,8.39872 16,8.5C 17.5991,7.92929 18.7658,6.92929 19.5,5.5 Z"/></g>
<g><path style="opacity:0.014" fill="#000000" d="M 26.5,13.5 C 27.9464,12.3871 29.6131,12.2204 31.5,13C 29.8659,13.4935 28.1992,13.6602 26.5,13.5 Z"/></g>
<g><path style="opacity:0.012" fill="#000000" d="M 71.5,13.5 C 71.8966,12.475 72.5632,12.3083 73.5,13C 72.9056,13.4643 72.2389,13.631 71.5,13.5 Z"/></g>
<g><path style="opacity:0.012" fill="#000000" d="M 87.5,13.5 C 87.8966,12.475 88.5632,12.3083 89.5,13C 88.9056,13.4643 88.2389,13.631 87.5,13.5 Z"/></g>
<g><path style="opacity:0.009" fill="#000000" d="M 101.5,13.5 C 100.448,13.6495 99.448,13.4828 98.5,13C 99.7494,12.2599 100.749,12.4265 101.5,13.5 Z"/></g>
<g><path style="opacity:0.009" fill="#000000" d="M 114.5,13.5 C 115.251,12.4265 116.251,12.2599 117.5,13C 116.552,13.4828 115.552,13.6495 114.5,13.5 Z"/></g>
<g><path style="opacity:0.013" fill="#000000" d="M 125.5,13.5 C 126.946,12.3871 128.613,12.2204 130.5,13C 128.866,13.4935 127.199,13.6602 125.5,13.5 Z"/></g>
<g><path style="opacity:0.014" fill="#000000" d="M 137.5,13.5 C 137.897,12.475 138.563,12.3083 139.5,13C 138.906,13.4643 138.239,13.631 137.5,13.5 Z"/></g>
<g><path style="opacity:0.012" fill="#000000" d="M 142.5,13.5 C 142.897,12.475 143.563,12.3083 144.5,13C 143.906,13.4643 143.239,13.631 142.5,13.5 Z"/></g>
<g><path style="opacity:0.014" fill="#000000" d="M 164.5,13.5 C 159.821,13.6658 155.155,13.4992 150.5,13C 155.352,12.1849 160.019,12.3516 164.5,13.5 Z"/></g>
<g><path style="opacity:0.014" fill="#000000" d="M 166.5,13.5 C 170.311,12.3547 174.311,12.1881 178.5,13C 174.514,13.4988 170.514,13.6655 166.5,13.5 Z"/></g>
<g><path style="opacity:0.012" fill="#000000" d="M 181.5,13.5 C 184.976,12.3567 188.642,12.1901 192.5,13C 188.848,13.4986 185.182,13.6653 181.5,13.5 Z"/></g>
<g><path style="opacity:0.403" fill="#ffebc9" d="M 21.5,13.5 C 21.5,14.1667 21.8333,14.5 22.5,14.5C 20.0521,15.4731 17.3854,15.8064 14.5,15.5C 16.2789,13.6565 18.6122,12.9898 21.5,13.5 Z"/></g>
<g><path style="opacity:0.004" fill="#fefffe" d="M 22.5,13.5 C 23.8333,14.1667 23.8333,14.1667 22.5,13.5 Z"/></g>
<g><path style="opacity:0.004" fill="#000000" d="M 85.5,13.5 C 86.8333,14.1667 86.8333,14.1667 85.5,13.5 Z"/></g>
<g><path style="opacity:0.008" fill="#000000" d="M 97.5,14.5 C 96.8333,13.1667 96.8333,13.1667 97.5,14.5 Z"/></g>
<g><path style="opacity:0.778" fill="#000000" d="M 101.5,13.5 C 105.396,14.1148 108.73,15.7814 111.5,18.5C 111.263,19.791 111.596,20.791 112.5,21.5C 112.5,23.5 112.5,25.5 112.5,27.5C 111.662,27.8417 111.328,28.5084 111.5,29.5C 109.833,30.5 108.5,31.8333 107.5,33.5C 106.508,33.3284 105.842,33.6618 105.5,34.5C 103.167,34.5 100.833,34.5 98.5,34.5C 89.5808,28.1891 89.2475,21.5224 97.5,14.5C 99.099,14.7678 100.432,14.4345 101.5,13.5 Z M 105.5,22.5 C 104.596,23.209 104.263,24.209 104.5,25.5C 103.292,26.2341 101.959,26.5674 100.5,26.5C 101.568,27.4345 102.901,27.7678 104.5,27.5C 98.749,29.2555 97.0824,27.2555 99.5,21.5C 100.274,20.8529 101.274,20.5195 102.5,20.5C 104.03,20.6399 105.03,21.3065 105.5,22.5 Z"/></g>
<g><path style="opacity:0.008" fill="#000000" d="M 135.5,13.5 C 136.833,14.1667 136.833,14.1667 135.5,13.5 Z"/></g>
<g><path style="opacity:0.004" fill="#000000" d="M 164.5,13.5 C 165.167,13.5 165.5,13.8333 165.5,14.5C 165.167,14.1667 164.833,13.8333 164.5,13.5 Z"/></g>
<g><path style="opacity:0.008" fill="#000000" d="M 193.5,13.5 C 194.833,14.1667 194.833,14.1667 193.5,13.5 Z"/></g>
<g><path style="opacity:0.779" fill="#000000" d="M 33.5,16.5 C 33.369,17.2389 33.5357,17.9056 34,18.5C 35.4813,17.5291 36.3146,16.1958 36.5,14.5C 39.0821,14.0254 41.0821,14.6921 42.5,16.5C 41.6618,16.8417 41.3284,17.5084 41.5,18.5C 40.0937,18.9731 39.427,19.9731 39.5,21.5C 37.6182,22.221 37.2848,23.221 38.5,24.5C 38.427,26.0269 39.0937,27.0269 40.5,27.5C 40.6854,29.1958 41.5187,30.5291 43,31.5C 43.4643,30.9056 43.631,30.2389 43.5,29.5C 44.9313,28.2196 45.5979,26.5529 45.5,24.5C 47.3924,21.7235 49.0591,18.7235 50.5,15.5C 51.1667,15.1667 51.8333,14.8333 52.5,14.5C 54.288,15.437 55.6214,16.7703 56.5,18.5C 57.3764,22.5821 59.0431,26.2488 61.5,29.5C 61.3284,30.4916 61.6618,31.1583 62.5,31.5C 61.9517,34.0838 60.285,35.0838 57.5,34.5C 57.1667,33.5 56.5,32.8333 55.5,32.5C 53.5,31.1667 51.5,31.1667 49.5,32.5C 48.8333,32.5 48.5,32.8333 48.5,33.5C 47.8333,33.5 47.5,33.8333 47.5,34.5C 44.2688,33.6322 40.9355,33.6322 37.5,34.5C 37.0679,33.2905 36.4013,32.2905 35.5,31.5C 35.5,30.8333 35.1667,30.5 34.5,30.5C 34.1667,27.8333 33.8333,27.8333 33.5,30.5C 32.6618,30.8417 32.3284,31.5084 32.5,32.5C 31.5,32.8333 30.8333,33.5 30.5,34.5C 28.8333,34.5 27.1667,34.5 25.5,34.5C 25.5,33.5 25.5,32.5 25.5,31.5C 27.1366,29.6838 28.6366,27.6838 30,25.5C 30.7401,24.2506 30.5735,23.2506 29.5,22.5C 28.8897,20.5659 27.8897,18.8993 26.5,17.5C 26.5,16.8333 26.1667,16.5 25.5,16.5C 27.9619,13.996 30.6286,13.996 33.5,16.5 Z M 36.5,14.5 C 36.3146,16.1958 35.4813,17.5291 34,18.5C 33.5357,17.9056 33.369,17.2389 33.5,16.5C 34.5,15.8333 35.5,15.1667 36.5,14.5 Z M 51.5,24.5 C 52.2891,24.7828 52.9558,25.2828 53.5,26C 52.184,26.5281 51.5173,26.0281 51.5,24.5 Z M 40.5,27.5 C 40.8333,27.5 41.1667,27.5 41.5,27.5C 41.8333,28.5 42.5,29.1667 43.5,29.5C 43.631,30.2389 43.4643,30.9056 43,31.5C 41.5187,30.5291 40.6854,29.1958 40.5,27.5 Z"/></g>
<g><path style="opacity:0.008" fill="#000000" d="M 43.5,16.5 C 43.369,15.7611 43.5357,15.0944 44,14.5C 44.6917,15.4368 44.525,16.1034 43.5,16.5 Z"/></g>
<g><path style="opacity:0.765" fill="#000000" d="M 83.5,18.5 C 84.1667,18.5 84.5,18.1667 84.5,17.5C 85.8149,16.5244 87.1482,15.5244 88.5,14.5C 89.086,14.7093 89.586,15.0426 90,15.5C 90.6667,21.5 90.6667,27.5 90,33.5C 87.5359,34.9091 85.3692,34.5757 83.5,32.5C 83.6602,30.8008 83.4935,29.1341 83,27.5C 81.8904,29.0368 80.3904,29.7035 78.5,29.5C 78.5386,28.2438 78.0386,27.2438 77,26.5C 76.6667,28.8333 76.3333,31.1667 76,33.5C 74.3333,34.8333 72.6667,34.8333 71,33.5C 70.5005,27.1754 70.3338,20.8421 70.5,14.5C 71.552,14.3505 72.552,14.5172 73.5,15C 75.6829,17.3504 78.0163,19.517 80.5,21.5C 81.8549,20.8118 82.8549,19.8118 83.5,18.5 Z"/></g>
<g><path style="opacity:0.004" fill="#000000" d="M 85.5,14.5 C 84.8333,15.1667 84.8333,15.1667 85.5,14.5 Z"/></g>
<g><path style="opacity:0.004" fill="#000000" d="M 112.5,14.5 C 113.833,15.1667 113.833,15.1667 112.5,14.5 Z"/></g>
<g><path style="opacity:0.779" fill="#000000" d="M 122.5,19.5 C 122.5,20.1667 122.833,20.5 123.5,20.5C 123.783,21.2891 124.283,21.9558 125,22.5C 125.497,19.854 125.664,17.1873 125.5,14.5C 127.5,14.5 129.5,14.5 131.5,14.5C 131.666,20.8421 131.5,27.1754 131,33.5C 130.329,34.2524 129.496,34.5858 128.5,34.5C 127.167,32.5 125.5,30.8333 123.5,29.5C 123.5,28.8333 123.167,28.5 122.5,28.5C 122.217,27.7109 121.717,27.0442 121,26.5C 120.774,29.095 120.274,31.595 119.5,34C 117.866,34.4935 116.199,34.6602 114.5,34.5C 114.662,32.4727 114.495,30.4727 114,28.5C 113.617,29.056 113.117,29.3893 112.5,29.5C 112.5,28.8333 112.5,28.1667 112.5,27.5C 113.497,27.5299 114.164,27.0299 114.5,26C 114.182,22.2731 114.182,18.4397 114.5,14.5C 115.552,14.3505 116.552,14.5172 117.5,15C 119.037,16.7073 120.704,18.2073 122.5,19.5 Z M 124.5,14.5 C 124.833,14.5 125.167,14.5 125.5,14.5C 125.664,17.1873 125.497,19.854 125,22.5C 124.283,21.9558 123.783,21.2891 123.5,20.5C 124.461,18.7354 124.795,16.7354 124.5,14.5 Z"/></g>
<g><path style="opacity:0.01" fill="#000000" d="M 124.5,14.5 C 124.795,16.7354 124.461,18.7354 123.5,20.5C 122.833,20.5 122.5,20.1667 122.5,19.5C 123.024,17.6943 123.691,16.0276 124.5,14.5 Z"/></g>
<g><path style="opacity:0.745" fill="#000000" d="M 147.5,16.5 C 148.301,18.0418 148.634,19.7085 148.5,21.5C 146.379,21.6747 144.379,21.3414 142.5,20.5C 144.782,22.0324 147.115,23.6991 149.5,25.5C 149.483,27.5648 149.15,29.5648 148.5,31.5C 147.833,31.5 147.5,31.8333 147.5,32.5C 146.833,32.5 146.5,32.8333 146.5,33.5C 145.508,33.3284 144.842,33.6618 144.5,34.5C 140.968,34.69 137.635,34.0233 134.5,32.5C 134.672,31.5084 134.338,30.8417 133.5,30.5C 133.5,29.5 133.5,28.5 133.5,27.5C 134.609,27.4431 135.609,27.1098 136.5,26.5C 135.833,25.1667 134.833,24.1667 133.5,23.5C 133.5,21.5 133.5,19.5 133.5,17.5C 134.167,17.5 134.5,17.1667 134.5,16.5C 138.9,13.9012 143.233,13.9012 147.5,16.5 Z M 142.5,20.5 C 141.233,21.087 140.233,21.087 139.5,20.5C 140.614,19.2241 141.614,19.2241 142.5,20.5 Z M 136.5,26.5 C 138.854,26.838 141.187,27.338 143.5,28C 140.788,28.8258 138.455,28.3258 136.5,26.5 Z"/></g>
<g><path style="opacity:0.761" fill="#000000" d="M 164.5,14.5 C 164.5,16.1667 164.5,17.8333 164.5,19.5C 163.167,19.5 161.833,19.5 160.5,19.5C 160.666,23.8461 160.499,28.1794 160,32.5C 158.604,34.5268 156.938,34.8602 155,33.5C 154.749,31.567 154.249,29.7337 153.5,28C 154.814,25.3953 154.814,22.8953 153.5,20.5C 152.432,19.5655 151.099,19.2322 149.5,19.5C 149.5,17.8333 149.5,16.1667 149.5,14.5C 154.5,14.5 159.5,14.5 164.5,14.5 Z"/></g>
<g><path style="opacity:0.754" fill="#000000" d="M 165.5,14.5 C 169.833,14.5 174.167,14.5 178.5,14.5C 178.5,16.1667 178.5,17.8333 178.5,19.5C 169.337,19.9042 169.337,20.9042 178.5,22.5C 178.5,23.5 178.5,24.5 178.5,25.5C 169.337,27.0958 169.337,28.0958 178.5,28.5C 178.739,30.4672 178.406,32.3005 177.5,34C 173.577,34.7927 169.744,34.626 166,33.5C 165.5,27.1754 165.334,20.8421 165.5,14.5 Z"/></g>
<g><path style="opacity:0.757" fill="#000000" d="M 196.5,17.5 C 196.5,20.1667 196.5,22.8333 196.5,25.5C 195.833,25.5 195.5,25.8333 195.5,26.5C 194.957,26.56 194.624,26.8933 194.5,27.5C 195.521,28.9014 196.521,30.2347 197.5,31.5C 197.5,32.5 197.5,33.5 197.5,34.5C 195.833,34.5 194.167,34.5 192.5,34.5C 191.833,33.1667 190.833,32.1667 189.5,31.5C 189.631,30.7611 189.464,30.0944 189,29.5C 187.938,32.0643 186.104,33.731 183.5,34.5C 182.261,34.0576 181.261,33.3909 180.5,32.5C 180.471,26.4546 180.304,20.4546 180,14.5C 183.966,14.4696 188.133,14.6362 192.5,15C 193.984,15.6622 195.317,16.4955 196.5,17.5 Z M 187.5,20.5 C 188.209,19.596 189.209,19.2627 190.5,19.5C 190.5,20.8333 190.5,22.1667 190.5,23.5C 187.466,23.817 186.466,22.817 187.5,20.5 Z"/></g>
<g><path style="opacity:0.004" fill="#000000" d="M 24.5,16.5 C 23.8333,15.1667 23.8333,15.1667 24.5,16.5 Z"/></g>
<g><path style="opacity:0.008" fill="#000000" d="M 68.5,15.5 C 69.6525,21.3188 69.8192,27.3188 69,33.5C 68.5005,27.5092 68.3338,21.5092 68.5,15.5 Z"/></g>
<g><path style="opacity:0.005" fill="#000000" d="M 84.5,15.5 C 84.5,16.1667 84.5,16.8333 84.5,17.5C 83.8333,17.5 83.5,17.8333 83.5,18.5C 82.2848,17.221 82.6182,16.221 84.5,15.5 Z"/></g>
<g><path style="opacity:0.012" fill="#000000" d="M 134.5,16.5 C 133.833,16.5 133.5,16.8333 133.5,17.5C 132.957,17.44 132.624,17.1067 132.5,16.5C 133.257,15.2267 133.923,15.2267 134.5,16.5 Z"/></g>
<g><path style="opacity:0.024" fill="#000000" d="M 147.5,15.5 C 148.833,16.1667 148.833,16.1667 147.5,15.5 Z"/></g>
<g><path style="opacity:0.006" fill="#000000" d="M 42.5,16.5 C 42.8333,16.5 43.1667,16.5 43.5,16.5C 43.6716,17.4916 43.3382,18.1583 42.5,18.5C 42.5,17.8333 42.5,17.1667 42.5,16.5 Z"/></g>
<g><path style="opacity:0.008" fill="#000000" d="M 56.5,18.5 C 56.369,17.7611 56.5357,17.0944 57,16.5C 57.6917,17.4368 57.525,18.1034 56.5,18.5 Z"/></g>
<g><path style="opacity:0.008" fill="#000000" d="M 196.5,16.5 C 197.833,17.1667 197.833,17.1667 196.5,16.5 Z"/></g>
<g><path style="opacity:0.004" fill="#2a2211" d="M 24.5,16.5 C 24.8333,16.5 25.1667,16.5 25.5,16.5C 26.1667,16.5 26.5,16.8333 26.5,17.5C 25.6987,19.7929 25.032,19.4596 24.5,16.5 Z"/></g>
<g><path style="opacity:0.012" fill="#000000" d="M 111.5,17.5 C 112.833,18.1667 112.833,18.1667 111.5,17.5 Z"/></g>
<g><path style="opacity:0.016" fill="#000000" d="M 41.5,18.5 C 41.8333,18.5 42.1667,18.5 42.5,18.5C 42.3147,19.1701 41.9813,19.1701 41.5,18.5 Z"/></g>
<g><path style="opacity:0.01" fill="#000000" d="M 197.5,18.5 C 198.525,18.8966 198.692,19.5632 198,20.5C 197.536,19.9056 197.369,19.2389 197.5,18.5 Z"/></g>
<g><path style="opacity:0.008" fill="#000000" d="M 112.5,21.5 C 112.369,20.7611 112.536,20.0944 113,19.5C 113.692,20.4368 113.525,21.1034 112.5,21.5 Z"/></g>
<g><path style="opacity:0.008" fill="#000000" d="M 40.5,20.5 C 41.8333,21.1667 41.8333,21.1667 40.5,20.5 Z"/></g>
<g><path style="opacity:0.005" fill="#000000" d="M 153.5,20.5 C 152.399,21.5983 151.066,21.765 149.5,21C 150.793,20.51 152.127,20.3433 153.5,20.5 Z"/></g>
<g><path style="opacity:0.006" fill="#000000" d="M 161.5,20.5 C 162.5,20.5 163.5,20.5 164.5,20.5C 164.666,24.8461 164.499,29.1794 164,33.5C 163.667,29.5 163.333,25.5 163,21.5C 161.893,22.7119 161.393,22.3786 161.5,20.5 Z"/></g>
<g><path style="opacity:0.01" fill="#000000" d="M 187.5,20.5 C 189.028,20.5173 189.528,21.184 189,22.5C 188.283,21.9558 187.783,21.2891 187.5,20.5 Z"/></g>
<g><path style="opacity:0.753" fill="#6b4c92" d="M 0.5,8.5 C 0.833333,8.5 1.16667,8.5 1.5,8.5C 1.29535,16.8671 1.62868,25.2004 2.5,33.5C 1.5,32.8333 0.5,32.1667 -0.5,31.5C -0.5,31.1667 -0.5,30.8333 -0.5,30.5C 0.833333,29.8333 0.833333,29.1667 -0.5,28.5C -0.5,23.5 -0.5,18.5 -0.5,13.5C 0.833333,13.1667 0.833333,12.8333 -0.5,12.5C -0.5,11.5 -0.5,10.5 -0.5,9.5C 0.166667,9.5 0.5,9.16667 0.5,8.5 Z"/></g>
<g><path style="opacity:0.016" fill="#000000" d="M 39.5,21.5 C 39.8333,21.5 40.1667,21.5 40.5,21.5C 40.3147,22.1701 39.9813,22.1701 39.5,21.5 Z"/></g>
<g><path style="opacity:0.008" fill="#000000" d="M 178.5,21.5 C 179.833,22.1667 179.833,22.1667 178.5,21.5 Z"/></g>
<g><path style="opacity:0.012" fill="#000000" d="M 29.5,22.5 C 29.631,23.2389 29.4643,23.9056 29,24.5C 28.3083,23.5632 28.475,22.8966 29.5,22.5 Z"/></g>
<g><path style="opacity:0.008" fill="#000000" d="M 197.5,22.5 C 198.525,22.8966 198.692,23.5632 198,24.5C 197.536,23.9056 197.369,23.2389 197.5,22.5 Z"/></g>
<g><path style="opacity:0.016" fill="#000000" d="M 39.5,24.5 C 38.8333,23.1667 38.8333,23.1667 39.5,24.5 Z"/></g>
<g><path style="opacity:0.012" fill="#000000" d="M 45.5,24.5 C 44.8333,23.1667 44.8333,23.1667 45.5,24.5 Z"/></g>
<g><path style="opacity:0.012" fill="#000000" d="M 133.5,23.5 C 134.405,24.9643 134.405,26.2976 133.5,27.5C 132.167,26.1667 132.167,24.8333 133.5,23.5 Z"/></g>
<g><path style="opacity:0.011" fill="#fec939" d="M 15.5,25.5 C 17.6282,24.3709 19.9615,24.2042 22.5,25C 20.1902,25.4966 17.8568,25.6633 15.5,25.5 Z"/></g>
<g><path style="opacity:0.008" fill="#000000" d="M 39.5,24.5 C 40.8333,25.1667 40.8333,25.1667 39.5,24.5 Z"/></g>
<g><path style="opacity:0.012" fill="#000000" d="M 149.5,24.5 C 150.833,25.1667 150.833,25.1667 149.5,24.5 Z"/></g>
<g><path style="opacity:0.013" fill="#000000" d="M 104.5,25.5 C 104.5,26.1667 104.5,26.8333 104.5,27.5C 102.901,27.7678 101.568,27.4345 100.5,26.5C 101.959,26.5674 103.292,26.2341 104.5,25.5 Z"/></g>
<g><path style="opacity:0.008" fill="#000000" d="M 178.5,25.5 C 179.833,26.1667 179.833,26.1667 178.5,25.5 Z"/></g>
<g><path style="opacity:0.008" fill="#000000" d="M 196.5,25.5 C 197.833,26.1667 197.833,26.1667 196.5,25.5 Z"/></g>
<g><path style="opacity:0.004" fill="#000000" d="M 150.5,26.5 C 151.573,27.2506 151.74,28.2506 151,29.5C 150.517,28.552 150.351,27.552 150.5,26.5 Z"/></g>
<g><path style="opacity:0.02" fill="#000000" d="M 195.5,26.5 C 195.833,26.5 196.167,26.5 196.5,26.5C 196.315,27.1701 195.981,27.1701 195.5,26.5 Z"/></g>
<g><path style="opacity:0.008" fill="#000000" d="M 41.5,27.5 C 42.8333,27.5 43.5,28.1667 43.5,29.5C 42.5,29.1667 41.8333,28.5 41.5,27.5 Z"/></g>
<g><path style="opacity:0.008" fill="#000000" d="M 61.5,29.5 C 61.369,28.7611 61.5357,28.0944 62,27.5C 62.6917,28.4368 62.525,29.1034 61.5,29.5 Z"/></g>
<g><path style="opacity:0.009" fill="#000000" d="M 122.5,28.5 C 123.167,28.5 123.5,28.8333 123.5,29.5C 122.91,30.766 122.41,32.0993 122,33.5C 121.22,31.6131 121.387,29.9464 122.5,28.5 Z"/></g>
<g><path style="opacity:0.007" fill="#000000" d="M 78.5,29.5 C 79.6085,30.29 80.9419,30.79 82.5,31C 80.5975,31.1992 79.0975,32.0325 78,33.5C 77.235,31.9343 77.4017,30.6009 78.5,29.5 Z"/></g>
<g><path style="opacity:0.016" fill="#000000" d="M 111.5,29.5 C 111.833,29.5 112.167,29.5 112.5,29.5C 112.315,30.1701 111.981,30.1701 111.5,29.5 Z"/></g>
<g><path style="opacity:0.006" fill="#000000" d="M 198.5,31.5 C 198.167,31.5 197.833,31.5 197.5,31.5C 197.833,28.8333 198.167,28.8333 198.5,31.5 Z"/></g>
<g><path style="opacity:0.004" fill="#7d621b" d="M 25.5,31.5 C 25.1667,31.5 24.8333,31.5 24.5,31.5C 24.8333,28.8333 25.1667,28.8333 25.5,31.5 Z"/></g>
<g><path style="opacity:0.01" fill="#000000" d="M 33.5,30.5 C 33.8333,30.5 34.1667,30.5 34.5,30.5C 35.1667,30.5 35.5,30.8333 35.5,31.5C 35.5912,33.6977 34.9245,34.0311 33.5,32.5C 33.5,31.8333 33.5,31.1667 33.5,30.5 Z"/></g>
<g><path style="opacity:0.012" fill="#000000" d="M 62.5,30.5 C 63.8333,31.1667 63.8333,31.1667 62.5,30.5 Z"/></g>
<g><path style="opacity:0.008" fill="#000000" d="M 133.5,30.5 C 133.328,31.4916 133.662,32.1583 134.5,32.5C 134.5,32.8333 134.5,33.1667 134.5,33.5C 132.448,32.9473 132.115,31.9473 133.5,30.5 Z"/></g>
<g><path style="opacity:0.008" fill="#000000" d="M 149.5,30.5 C 150.833,31.1667 150.833,31.1667 149.5,30.5 Z"/></g>
<g><path style="opacity:0.004" fill="#000000" d="M 91.5,31.5 C 92.8333,32.1667 92.8333,32.1667 91.5,31.5 Z"/></g>
<g><path style="opacity:0.004" fill="#000000" d="M 110.5,31.5 C 111.833,32.1667 111.833,32.1667 110.5,31.5 Z"/></g>
<g><path style="opacity:0.008" fill="#000000" d="M 148.5,31.5 C 148.833,31.5 149.167,31.5 149.5,31.5C 149.315,32.1701 148.981,32.1701 148.5,31.5 Z"/></g>
<g><path style="opacity:0.016" fill="#000000" d="M 189.5,31.5 C 188.833,32.1667 188.833,32.1667 189.5,31.5 Z"/></g>
<g><path style="opacity:0.008" fill="#000000" d="M 198.5,31.5 C 198.833,31.5 199.167,31.5 199.5,31.5C 199.5,32.1667 199.5,32.8333 199.5,33.5C 198.662,33.1583 198.328,32.4916 198.5,31.5 Z"/></g>
<g><path style="opacity:0.008" fill="#000000" d="M 32.5,32.5 C 32.8333,32.5 33.1667,32.5 33.5,32.5C 33.3147,33.1701 32.9813,33.1701 32.5,32.5 Z"/></g>
<g><path style="opacity:0.007" fill="#000000" d="M 49.5,33.5 C 49.5,33.1667 49.5,32.8333 49.5,32.5C 51.5,32.5 53.5,32.5 55.5,32.5C 53.7354,33.4614 51.7354,33.7947 49.5,33.5 Z"/></g>
<g><path style="opacity:0.004" fill="#000000" d="M 63.5,32.5 C 64.8333,33.1667 64.8333,33.1667 63.5,32.5 Z"/></g>
<g><path style="opacity:0.004" fill="#000000" d="M 83.5,32.5 C 82.8333,33.1667 82.8333,33.1667 83.5,32.5 Z"/></g>
<g><path style="opacity:0.004" fill="#000000" d="M 110.5,32.5 C 109.833,33.1667 109.833,33.1667 110.5,32.5 Z"/></g>
<g><path style="opacity:0.008" fill="#000000" d="M 112.5,32.5 C 113.833,33.1667 113.833,33.1667 112.5,32.5 Z"/></g>
<g><path style="opacity:0.008" fill="#000000" d="M 147.5,32.5 C 147.833,32.5 148.167,32.5 148.5,32.5C 148.315,33.1701 147.981,33.1701 147.5,32.5 Z"/></g>
<g><path style="opacity:0.004" fill="#000000" d="M 152.5,32.5 C 153.833,33.1667 153.833,33.1667 152.5,32.5 Z"/></g>
<g><path style="opacity:0.012" fill="#000000" d="M 180.5,32.5 C 179.833,33.1667 179.833,33.1667 180.5,32.5 Z"/></g>
<g><path style="opacity:0.004" fill="#d2a130" d="M 23.5,33.5 C 24.8333,34.1667 24.8333,34.1667 23.5,33.5 Z"/></g>
<g><path style="opacity:0.004" fill="#000000" d="M 48.5,33.5 C 48.8333,33.5 49.1667,33.5 49.5,33.5C 49.3147,34.1701 48.9813,34.1701 48.5,33.5 Z"/></g>
<g><path style="opacity:0.012" fill="#000000" d="M 107.5,33.5 C 108.833,34.1667 108.833,34.1667 107.5,33.5 Z"/></g>
<g><path style="opacity:0.004" fill="#000000" d="M 134.5,33.5 C 135.833,34.1667 135.833,34.1667 134.5,33.5 Z"/></g>
<g><path style="opacity:0.012" fill="#000000" d="M 146.5,33.5 C 146.833,33.5 147.167,33.5 147.5,33.5C 147.315,34.1701 146.981,34.1701 146.5,33.5 Z"/></g>
<g><path style="opacity:0.008" fill="#000000" d="M 30.5,34.5 C 31.8333,35.1667 31.8333,35.1667 30.5,34.5 Z"/></g>
<g><path style="opacity:0.004" fill="#000000" d="M 37.5,34.5 C 36.8333,35.1667 36.8333,35.1667 37.5,34.5 Z"/></g>
<g><path style="opacity:0.004" fill="#000000" d="M 47.5,34.5 C 47.8333,34.5 48.1667,34.5 48.5,34.5C 48.3147,35.1701 47.9813,35.1701 47.5,34.5 Z"/></g>
<g><path style="opacity:0.004" fill="#000000" d="M 57.5,34.5 C 56.8333,35.1667 56.8333,35.1667 57.5,34.5 Z"/></g>
<g><path style="opacity:0.008" fill="#000000" d="M 98.5,34.5 C 98.1034,35.525 97.4368,35.6917 96.5,35C 97.0944,34.5357 97.7611,34.369 98.5,34.5 Z"/></g>
<g><path style="opacity:0.01" fill="#000000" d="M 105.5,34.5 C 106.167,34.5 106.833,34.5 107.5,34.5C 106.833,35.8333 106.167,35.8333 105.5,34.5 Z"/></g>
<g><path style="opacity:0.008" fill="#000000" d="M 128.5,34.5 C 127.833,35.1667 127.833,35.1667 128.5,34.5 Z"/></g>
<g><path style="opacity:0.012" fill="#000000" d="M 136.5,34.5 C 137.833,35.1667 137.833,35.1667 136.5,34.5 Z"/></g>
<g><path style="opacity:0.006" fill="#000000" d="M 144.5,34.5 C 145.167,34.5 145.833,34.5 146.5,34.5C 145.833,35.8333 145.167,35.8333 144.5,34.5 Z"/></g>
<g><path style="opacity:0.004" fill="#000000" d="M 192.5,34.5 C 191.833,35.1667 191.833,35.1667 192.5,34.5 Z"/></g>
<g><path style="opacity:0.004" fill="#000000" d="M 26.5,36.5 C 26.8966,35.475 27.5632,35.3083 28.5,36C 27.9056,36.4643 27.2389,36.631 26.5,36.5 Z"/></g>
<g><path style="opacity:0.004" fill="#000000" d="M 38.5,36.5 C 39.2506,35.4265 40.2506,35.2599 41.5,36C 40.552,36.4828 39.552,36.6495 38.5,36.5 Z"/></g>
<g><path style="opacity:0.004" fill="#000000" d="M 58.5,36.5 C 58.8966,35.475 59.5632,35.3083 60.5,36C 59.9056,36.4643 59.2389,36.631 58.5,36.5 Z"/></g>
<g><path style="opacity:0.004" fill="#000000" d="M 72.5,36.5 C 72.8966,35.475 73.5632,35.3083 74.5,36C 73.9056,36.4643 73.2389,36.631 72.5,36.5 Z"/></g>
<g><path style="opacity:0.004" fill="#000000" d="M 86.5,36.5 C 86.8966,35.475 87.5632,35.3083 88.5,36C 87.9056,36.4643 87.2389,36.631 86.5,36.5 Z"/></g>
<g><path style="opacity:0.009" fill="#000000" d="M 99.5,36.5 C 100.946,35.3871 102.613,35.2204 104.5,36C 102.866,36.4935 101.199,36.6602 99.5,36.5 Z"/></g>
<g><path style="opacity:0.004" fill="#000000" d="M 115.5,36.5 C 116.251,35.4265 117.251,35.2599 118.5,36C 117.552,36.4828 116.552,36.6495 115.5,36.5 Z"/></g>
<g><path style="opacity:0.004" fill="#000000" d="M 129.5,35.5 C 130.833,36.1667 130.833,36.1667 129.5,35.5 Z"/></g>
<g><path style="opacity:0.006" fill="#000000" d="M 138.5,36.5 C 139.946,35.3871 141.613,35.2204 143.5,36C 141.866,36.4935 140.199,36.6602 138.5,36.5 Z"/></g>
<g><path style="opacity:0.004" fill="#000000" d="M 167.5,35.5 C 168.833,36.1667 168.833,36.1667 167.5,35.5 Z"/></g>
<g><path style="opacity:0.004" fill="#000000" d="M 173.5,35.5 C 174.833,36.1667 174.833,36.1667 173.5,35.5 Z"/></g>
<g><path style="opacity:0.004" fill="#000000" d="M 175.5,36.5 C 175.897,35.475 176.563,35.3083 177.5,36C 176.906,36.4643 176.239,36.631 175.5,36.5 Z"/></g>
<g><path style="opacity:0.004" fill="#000000" d="M 182.5,35.5 C 183.833,36.1667 183.833,36.1667 182.5,35.5 Z"/></g>
<g><path style="opacity:0.012" fill="#fec939" d="M 3.5,37.5 C 9.3188,36.3475 15.3188,36.1808 21.5,37C 15.5092,37.4995 9.50924,37.6662 3.5,37.5 Z"/></g>
</svg>
